<svg width="770" height="386" viewBox="0 0 770 386" fill="none" xmlns="http://www.w3.org/2000/svg">
<path d="M513.333 386C619.648 386 757.167 303.88 757.167 197.289C757.167 90.698 619.648 0 513.333 0V34.3111C603.11 34.3112 675.889 107.279 675.889 197.289C675.889 287.299 603.11 360.267 513.333 360.267V386Z" fill="#FF8311"/>
<path d="M318.65 27.8463C295.901 -9.28205 242.201 -9.28214 219.451 27.8462L4.66424 378.388C2.62287 381.719 5.0203 386 8.92758 386H35.5335C37.2681 386 38.8788 385.101 39.7893 383.624L242.229 55.3462C253.618 36.8776 280.351 36.8776 291.74 55.3462L495.059 385.05C495.423 385.64 496.067 386 496.761 386H520.721C528.317 386 532.971 377.627 528.987 371.126L318.65 27.8463Z" fill="#FF8311"/>
<path d="M479.111 283.067C531.087 283.067 561.458 261.622 573.222 248.756H479.111V283.067Z" fill="#FF8311"/>
<path d="M598.889 120.089C598.889 139.038 583.567 154.4 564.667 154.4C545.767 154.4 530.444 139.038 530.444 120.089C530.444 101.14 545.767 85.7778 564.667 85.7778C583.567 85.7778 598.889 101.14 598.889 120.089Z" fill="#FF8311"/>
<path d="M613.932 215.614C618.886 220.25 635.49 232.305 642.921 209.122C645.04 202.512 643.875 198.458 631.042 189.88C622.486 185.591 622.488 177.013 613.196 181.303C601.099 194.169 611.454 213.295 613.932 215.614Z" fill="#FF8311"/>
<path d="M479.111 17.1556C479.111 7.6808 486.772 0 496.222 0H513.333V68.6222C513.333 78.097 505.673 85.7778 496.222 85.7778C486.772 85.7778 479.111 78.097 479.111 68.6222V17.1556Z" fill="#FF8311"/>
</svg>
