<svg width="40" height="40" viewBox="0 0 40 40" fill="none" xmlns="http://www.w3.org/2000/svg">
<path fill-rule="evenodd" clip-rule="evenodd" d="M5.58579 8.41421C4.80474 7.63317 4.80474 6.36684 5.58579 5.58579C6.36684 4.80474 7.63317 4.80474 8.41421 5.58579L20 17.1716L31.5858 5.58579C32.3668 4.80474 33.6332 4.80474 34.4142 5.58579C35.1953 6.36684 35.1953 7.63317 34.4142 8.41421L22.8284 20L34.4142 31.5858C35.1953 32.3668 35.1953 33.6332 34.4142 34.4142C33.6332 35.1953 32.3668 35.1953 31.5858 34.4142L20 22.8284L8.41421 34.4142C7.63317 35.1953 6.36684 35.1953 5.58579 34.4142C4.80474 33.6332 4.80474 32.3668 5.58579 31.5858L17.1716 20L5.58579 8.41421Z" fill="#0057FF"/>
</svg>
