<svg width="73" height="23" viewBox="0 0 73 23" fill="none" xmlns="http://www.w3.org/2000/svg">
<path d="M2 10C1.17157 10 0.5 10.6716 0.5 11.5C0.5 12.3284 1.17157 13 2 13V10ZM72.0607 12.5607C72.6464 11.9749 72.6464 11.0251 72.0607 10.4393L62.5147 0.893398C61.9289 0.307612 60.9792 0.307612 60.3934 0.893398C59.8076 1.47918 59.8076 2.42893 60.3934 3.01472L68.8787 11.5L60.3934 19.9853C59.8076 20.5711 59.8076 21.5208 60.3934 22.1066C60.9792 22.6924 61.9289 22.6924 62.5147 22.1066L72.0607 12.5607ZM2 13H71V10H2V13Z" fill="#52ff00"/>
</svg>
