<svg width="73" height="23" viewBox="0 0 73 23" fill="none" xmlns="http://www.w3.org/2000/svg">
<path d="M71 10C71.8284 10 72.5 10.6716 72.5 11.5C72.5 12.3284 71.8284 13 71 13V10ZM0.93934 12.5607C0.353553 11.9749 0.353553 11.0251 0.93934 10.4393L10.4853 0.893398C11.0711 0.307612 12.0208 0.307612 12.6066 0.893398C13.1924 1.47918 13.1924 2.42893 12.6066 3.01472L4.12132 11.5L12.6066 19.9853C13.1924 20.5711 13.1924 21.5208 12.6066 22.1066C12.0208 22.6924 11.0711 22.6924 10.4853 22.1066L0.93934 12.5607ZM71 13H2V10H71V13Z" fill="#005CFF"/>
</svg>
